<?xml version="1.0" encoding="utf-8" standalone="no"?>
<!DOCTYPE svg PUBLIC "-//W3C//DTD SVG 1.1//EN"
  "http://www.w3.org/Graphics/SVG/1.1/DTD/svg11.dtd">
<svg xmlns:xlink="http://www.w3.org/1999/xlink" width="504pt" height="504pt" viewBox="0 0 504 504" xmlns="http://www.w3.org/2000/svg" version="1.1">
 <metadata>
  <rdf:RDF xmlns:dc="http://purl.org/dc/elements/1.1/" xmlns:cc="http://creativecommons.org/ns#" xmlns:rdf="http://www.w3.org/1999/02/22-rdf-syntax-ns#">
   <cc:Work>
    <dc:type rdf:resource="http://purl.org/dc/dcmitype/StillImage"/>
    <dc:date>2025-04-08T16:48:53.040838</dc:date>
    <dc:format>image/svg+xml</dc:format>
    <dc:creator>
     <cc:Agent>
      <dc:title>Matplotlib v3.9.3, https://matplotlib.org/</dc:title>
     </cc:Agent>
    </dc:creator>
   </cc:Work>
  </rdf:RDF>
 </metadata>
 <defs>
  <style type="text/css">*{stroke-linejoin: round; stroke-linecap: butt}</style>
 </defs>
 <g id="figure_1">
  <g id="patch_1">
   <path d="M 0 504
L 504 504
L 504 0
L 0 0
z
" style="fill: #ffffff"/>
  </g>
  <g id="axes_1">
   <g id="patch_2">
    <path d="M 153.83432 314.950374
L 350.16568 314.950374
L 350.16568 139.247226
L 153.83432 139.247226
z
" clip-path="url(#p020af88687)" style="fill: #463480; opacity: 0.1"/>
   </g>
   <g id="patch_3">
    <path d="M 132.798817 333.775711
L 371.201183 333.775711
L 371.201183 120.421889
L 132.798817 120.421889
z
" clip-path="url(#p020af88687)" style="fill: #2b748e; opacity: 0.1"/>
   </g>
   <g id="patch_4">
    <path d="M 90.727811 371.426386
L 413.272189 371.426386
L 413.272189 82.771214
L 90.727811 82.771214
z
" clip-path="url(#p020af88687)" style="fill: #25ac82; opacity: 0.1"/>
   </g>
   <g id="patch_5">
    <path d="M 69.692308 390.251723
L 434.307692 390.251723
L 434.307692 63.945877
L 69.692308 63.945877
z
" clip-path="url(#p020af88687)" style="fill: #9bd93c; opacity: 0.1"/>
   </g>
   <g id="line2d_1">
    <path d="M 111.763314 352.601049
L 392.236686 352.601049
L 392.236686 101.596551
L 111.763314 101.596551
L 111.763314 352.601049
" clip-path="url(#p020af88687)" style="fill: none; stroke-dasharray: 4.44,1.92; stroke-dashoffset: 0; stroke: #000000; stroke-opacity: 0.7; stroke-width: 1.2"/>
   </g>
   <g id="line2d_2">
    <path d="M 153.83432 314.950374
L 350.16568 314.950374
L 350.16568 139.247226
L 153.83432 139.247226
L 153.83432 314.950374
" clip-path="url(#p020af88687)" style="fill: none; stroke: #463480; stroke-opacity: 0.9; stroke-width: 2; stroke-linecap: square"/>
   </g>
   <g id="line2d_3">
    <path d="M 153.83432 314.950374
L 350.16568 314.950374
" clip-path="url(#p020af88687)" style="fill: none; stroke: #463480; stroke-opacity: 0.15; stroke-width: 0.8; stroke-linecap: square"/>
   </g>
   <g id="line2d_4">
    <path d="M 153.83432 314.950374
L 153.83432 139.247226
" clip-path="url(#p020af88687)" style="fill: none; stroke: #463480; stroke-opacity: 0.15; stroke-width: 0.8; stroke-linecap: square"/>
   </g>
   <g id="line2d_5">
    <path d="M 153.83432 271.024587
L 350.16568 271.024587
" clip-path="url(#p020af88687)" style="fill: none; stroke: #463480; stroke-opacity: 0.15; stroke-width: 0.8; stroke-linecap: square"/>
   </g>
   <g id="line2d_6">
    <path d="M 202.91716 314.950374
L 202.91716 139.247226
" clip-path="url(#p020af88687)" style="fill: none; stroke: #463480; stroke-opacity: 0.15; stroke-width: 0.8; stroke-linecap: square"/>
   </g>
   <g id="line2d_7">
    <path d="M 153.83432 227.0988
L 350.16568 227.0988
" clip-path="url(#p020af88687)" style="fill: none; stroke: #463480; stroke-opacity: 0.15; stroke-width: 0.8; stroke-linecap: square"/>
   </g>
   <g id="line2d_8">
    <path d="M 252 314.950374
L 252 139.247226
" clip-path="url(#p020af88687)" style="fill: none; stroke: #463480; stroke-opacity: 0.15; stroke-width: 0.8; stroke-linecap: square"/>
   </g>
   <g id="line2d_9">
    <path d="M 153.83432 183.173013
L 350.16568 183.173013
" clip-path="url(#p020af88687)" style="fill: none; stroke: #463480; stroke-opacity: 0.15; stroke-width: 0.8; stroke-linecap: square"/>
   </g>
   <g id="line2d_10">
    <path d="M 301.08284 314.950374
L 301.08284 139.247226
" clip-path="url(#p020af88687)" style="fill: none; stroke: #463480; stroke-opacity: 0.15; stroke-width: 0.8; stroke-linecap: square"/>
   </g>
   <g id="line2d_11">
    <path d="M 153.83432 139.247226
L 350.16568 139.247226
" clip-path="url(#p020af88687)" style="fill: none; stroke: #463480; stroke-opacity: 0.15; stroke-width: 0.8; stroke-linecap: square"/>
   </g>
   <g id="line2d_12">
    <path d="M 350.16568 314.950374
L 350.16568 139.247226
" clip-path="url(#p020af88687)" style="fill: none; stroke: #463480; stroke-opacity: 0.15; stroke-width: 0.8; stroke-linecap: square"/>
   </g>
   <g id="line2d_13">
    <path d="M 132.798817 333.775711
L 371.201183 333.775711
L 371.201183 120.421889
L 132.798817 120.421889
L 132.798817 333.775711
" clip-path="url(#p020af88687)" style="fill: none; stroke: #2b748e; stroke-opacity: 0.9; stroke-width: 2; stroke-linecap: square"/>
   </g>
   <g id="line2d_14">
    <path d="M 132.798817 333.775711
L 371.201183 333.775711
" clip-path="url(#p020af88687)" style="fill: none; stroke: #2b748e; stroke-opacity: 0.15; stroke-width: 0.8; stroke-linecap: square"/>
   </g>
   <g id="line2d_15">
    <path d="M 132.798817 333.775711
L 132.798817 120.421889
" clip-path="url(#p020af88687)" style="fill: none; stroke: #2b748e; stroke-opacity: 0.15; stroke-width: 0.8; stroke-linecap: square"/>
   </g>
   <g id="line2d_16">
    <path d="M 132.798817 280.437256
L 371.201183 280.437256
" clip-path="url(#p020af88687)" style="fill: none; stroke: #2b748e; stroke-opacity: 0.15; stroke-width: 0.8; stroke-linecap: square"/>
   </g>
   <g id="line2d_17">
    <path d="M 192.399408 333.775711
L 192.399408 120.421889
" clip-path="url(#p020af88687)" style="fill: none; stroke: #2b748e; stroke-opacity: 0.15; stroke-width: 0.8; stroke-linecap: square"/>
   </g>
   <g id="line2d_18">
    <path d="M 132.798817 227.0988
L 371.201183 227.0988
" clip-path="url(#p020af88687)" style="fill: none; stroke: #2b748e; stroke-opacity: 0.15; stroke-width: 0.8; stroke-linecap: square"/>
   </g>
   <g id="line2d_19">
    <path d="M 252 333.775711
L 252 120.421889
" clip-path="url(#p020af88687)" style="fill: none; stroke: #2b748e; stroke-opacity: 0.15; stroke-width: 0.8; stroke-linecap: square"/>
   </g>
   <g id="line2d_20">
    <path d="M 132.798817 173.760344
L 371.201183 173.760344
" clip-path="url(#p020af88687)" style="fill: none; stroke: #2b748e; stroke-opacity: 0.15; stroke-width: 0.8; stroke-linecap: square"/>
   </g>
   <g id="line2d_21">
    <path d="M 311.600592 333.775711
L 311.600592 120.421889
" clip-path="url(#p020af88687)" style="fill: none; stroke: #2b748e; stroke-opacity: 0.15; stroke-width: 0.8; stroke-linecap: square"/>
   </g>
   <g id="line2d_22">
    <path d="M 132.798817 120.421889
L 371.201183 120.421889
" clip-path="url(#p020af88687)" style="fill: none; stroke: #2b748e; stroke-opacity: 0.15; stroke-width: 0.8; stroke-linecap: square"/>
   </g>
   <g id="line2d_23">
    <path d="M 371.201183 333.775711
L 371.201183 120.421889
" clip-path="url(#p020af88687)" style="fill: none; stroke: #2b748e; stroke-opacity: 0.15; stroke-width: 0.8; stroke-linecap: square"/>
   </g>
   <g id="line2d_24">
    <path d="M 90.727811 371.426386
L 413.272189 371.426386
L 413.272189 82.771214
L 90.727811 82.771214
L 90.727811 371.426386
" clip-path="url(#p020af88687)" style="fill: none; stroke: #25ac82; stroke-opacity: 0.9; stroke-width: 2; stroke-linecap: square"/>
   </g>
   <g id="line2d_25">
    <path d="M 90.727811 371.426386
L 413.272189 371.426386
" clip-path="url(#p020af88687)" style="fill: none; stroke: #25ac82; stroke-opacity: 0.15; stroke-width: 0.8; stroke-linecap: square"/>
   </g>
   <g id="line2d_26">
    <path d="M 90.727811 371.426386
L 90.727811 82.771214
" clip-path="url(#p020af88687)" style="fill: none; stroke: #25ac82; stroke-opacity: 0.15; stroke-width: 0.8; stroke-linecap: square"/>
   </g>
   <g id="line2d_27">
    <path d="M 90.727811 299.262593
L 413.272189 299.262593
" clip-path="url(#p020af88687)" style="fill: none; stroke: #25ac82; stroke-opacity: 0.15; stroke-width: 0.8; stroke-linecap: square"/>
   </g>
   <g id="line2d_28">
    <path d="M 171.363905 371.426386
L 171.363905 82.771214
" clip-path="url(#p020af88687)" style="fill: none; stroke: #25ac82; stroke-opacity: 0.15; stroke-width: 0.8; stroke-linecap: square"/>
   </g>
   <g id="line2d_29">
    <path d="M 90.727811 227.0988
L 413.272189 227.0988
" clip-path="url(#p020af88687)" style="fill: none; stroke: #25ac82; stroke-opacity: 0.15; stroke-width: 0.8; stroke-linecap: square"/>
   </g>
   <g id="line2d_30">
    <path d="M 252 371.426386
L 252 82.771214
" clip-path="url(#p020af88687)" style="fill: none; stroke: #25ac82; stroke-opacity: 0.15; stroke-width: 0.8; stroke-linecap: square"/>
   </g>
   <g id="line2d_31">
    <path d="M 90.727811 154.935007
L 413.272189 154.935007
" clip-path="url(#p020af88687)" style="fill: none; stroke: #25ac82; stroke-opacity: 0.15; stroke-width: 0.8; stroke-linecap: square"/>
   </g>
   <g id="line2d_32">
    <path d="M 332.636095 371.426386
L 332.636095 82.771214
" clip-path="url(#p020af88687)" style="fill: none; stroke: #25ac82; stroke-opacity: 0.15; stroke-width: 0.8; stroke-linecap: square"/>
   </g>
   <g id="line2d_33">
    <path d="M 90.727811 82.771214
L 413.272189 82.771214
" clip-path="url(#p020af88687)" style="fill: none; stroke: #25ac82; stroke-opacity: 0.15; stroke-width: 0.8; stroke-linecap: square"/>
   </g>
   <g id="line2d_34">
    <path d="M 413.272189 371.426386
L 413.272189 82.771214
" clip-path="url(#p020af88687)" style="fill: none; stroke: #25ac82; stroke-opacity: 0.15; stroke-width: 0.8; stroke-linecap: square"/>
   </g>
   <g id="line2d_35">
    <path d="M 69.692308 390.251723
L 434.307692 390.251723
L 434.307692 63.945877
L 69.692308 63.945877
L 69.692308 390.251723
" clip-path="url(#p020af88687)" style="fill: none; stroke: #9bd93c; stroke-opacity: 0.9; stroke-width: 2; stroke-linecap: square"/>
   </g>
   <g id="line2d_36">
    <path d="M 69.692308 390.251723
L 434.307692 390.251723
" clip-path="url(#p020af88687)" style="fill: none; stroke: #9bd93c; stroke-opacity: 0.15; stroke-width: 0.8; stroke-linecap: square"/>
   </g>
   <g id="line2d_37">
    <path d="M 69.692308 390.251723
L 69.692308 63.945877
" clip-path="url(#p020af88687)" style="fill: none; stroke: #9bd93c; stroke-opacity: 0.15; stroke-width: 0.8; stroke-linecap: square"/>
   </g>
   <g id="line2d_38">
    <path d="M 69.692308 308.675262
L 434.307692 308.675262
" clip-path="url(#p020af88687)" style="fill: none; stroke: #9bd93c; stroke-opacity: 0.15; stroke-width: 0.8; stroke-linecap: square"/>
   </g>
   <g id="line2d_39">
    <path d="M 160.846154 390.251723
L 160.846154 63.945877
" clip-path="url(#p020af88687)" style="fill: none; stroke: #9bd93c; stroke-opacity: 0.15; stroke-width: 0.8; stroke-linecap: square"/>
   </g>
   <g id="line2d_40">
    <path d="M 69.692308 227.0988
L 434.307692 227.0988
" clip-path="url(#p020af88687)" style="fill: none; stroke: #9bd93c; stroke-opacity: 0.15; stroke-width: 0.8; stroke-linecap: square"/>
   </g>
   <g id="line2d_41">
    <path d="M 252 390.251723
L 252 63.945877
" clip-path="url(#p020af88687)" style="fill: none; stroke: #9bd93c; stroke-opacity: 0.15; stroke-width: 0.8; stroke-linecap: square"/>
   </g>
   <g id="line2d_42">
    <path d="M 69.692308 145.522338
L 434.307692 145.522338
" clip-path="url(#p020af88687)" style="fill: none; stroke: #9bd93c; stroke-opacity: 0.15; stroke-width: 0.8; stroke-linecap: square"/>
   </g>
   <g id="line2d_43">
    <path d="M 343.153846 390.251723
L 343.153846 63.945877
" clip-path="url(#p020af88687)" style="fill: none; stroke: #9bd93c; stroke-opacity: 0.15; stroke-width: 0.8; stroke-linecap: square"/>
   </g>
   <g id="line2d_44">
    <path d="M 69.692308 63.945877
L 434.307692 63.945877
" clip-path="url(#p020af88687)" style="fill: none; stroke: #9bd93c; stroke-opacity: 0.15; stroke-width: 0.8; stroke-linecap: square"/>
   </g>
   <g id="line2d_45">
    <path d="M 434.307692 390.251723
L 434.307692 63.945877
" clip-path="url(#p020af88687)" style="fill: none; stroke: #9bd93c; stroke-opacity: 0.15; stroke-width: 0.8; stroke-linecap: square"/>
   </g>
   <g id="legend_1">
    <g id="patch_6">
     <path d="M 75.538281 489.279778
L 428.461719 489.279778
Q 430.461719 489.279778 430.461719 487.279778
L 430.461719 458.923528
Q 430.461719 456.923528 428.461719 456.923528
L 75.538281 456.923528
Q 73.538281 456.923528 73.538281 458.923528
L 73.538281 487.279778
Q 73.538281 489.279778 75.538281 489.279778
z
" style="fill: #ffffff; opacity: 0.7; stroke: #cccccc; stroke-linejoin: miter"/>
    </g>
    <g id="line2d_46">
     <path d="M 77.538281 465.021965
L 87.538281 465.021965
L 97.538281 465.021965
" style="fill: none; stroke-dasharray: 4.44,1.92; stroke-dashoffset: 0; stroke: #000000; stroke-opacity: 0.7; stroke-width: 1.2"/>
    </g>
    <g id="text_1">
     <!-- Rest state -->
     <g transform="translate(105.538281 468.521965) scale(0.1 -0.1)">
      <defs>
       <path id="DejaVuSans-52" d="M 2841 2188
Q 3044 2119 3236 1894
Q 3428 1669 3622 1275
L 4263 0
L 3584 0
L 2988 1197
Q 2756 1666 2539 1819
Q 2322 1972 1947 1972
L 1259 1972
L 1259 0
L 628 0
L 628 4666
L 2053 4666
Q 2853 4666 3247 4331
Q 3641 3997 3641 3322
Q 3641 2881 3436 2590
Q 3231 2300 2841 2188
z
M 1259 4147
L 1259 2491
L 2053 2491
Q 2509 2491 2742 2702
Q 2975 2913 2975 3322
Q 2975 3731 2742 3939
Q 2509 4147 2053 4147
L 1259 4147
z
" transform="scale(0.015625)"/>
       <path id="DejaVuSans-65" d="M 3597 1894
L 3597 1613
L 953 1613
Q 991 1019 1311 708
Q 1631 397 2203 397
Q 2534 397 2845 478
Q 3156 559 3463 722
L 3463 178
Q 3153 47 2828 -22
Q 2503 -91 2169 -91
Q 1331 -91 842 396
Q 353 884 353 1716
Q 353 2575 817 3079
Q 1281 3584 2069 3584
Q 2775 3584 3186 3129
Q 3597 2675 3597 1894
z
M 3022 2063
Q 3016 2534 2758 2815
Q 2500 3097 2075 3097
Q 1594 3097 1305 2825
Q 1016 2553 972 2059
L 3022 2063
z
" transform="scale(0.015625)"/>
       <path id="DejaVuSans-73" d="M 2834 3397
L 2834 2853
Q 2591 2978 2328 3040
Q 2066 3103 1784 3103
Q 1356 3103 1142 2972
Q 928 2841 928 2578
Q 928 2378 1081 2264
Q 1234 2150 1697 2047
L 1894 2003
Q 2506 1872 2764 1633
Q 3022 1394 3022 966
Q 3022 478 2636 193
Q 2250 -91 1575 -91
Q 1294 -91 989 -36
Q 684 19 347 128
L 347 722
Q 666 556 975 473
Q 1284 391 1588 391
Q 1994 391 2212 530
Q 2431 669 2431 922
Q 2431 1156 2273 1281
Q 2116 1406 1581 1522
L 1381 1569
Q 847 1681 609 1914
Q 372 2147 372 2553
Q 372 3047 722 3315
Q 1072 3584 1716 3584
Q 2034 3584 2315 3537
Q 2597 3491 2834 3397
z
" transform="scale(0.015625)"/>
       <path id="DejaVuSans-74" d="M 1172 4494
L 1172 3500
L 2356 3500
L 2356 3053
L 1172 3053
L 1172 1153
Q 1172 725 1289 603
Q 1406 481 1766 481
L 2356 481
L 2356 0
L 1766 0
Q 1100 0 847 248
Q 594 497 594 1153
L 594 3053
L 172 3053
L 172 3500
L 594 3500
L 594 4494
L 1172 4494
z
" transform="scale(0.015625)"/>
       <path id="DejaVuSans-20" transform="scale(0.015625)"/>
       <path id="DejaVuSans-61" d="M 2194 1759
Q 1497 1759 1228 1600
Q 959 1441 959 1056
Q 959 750 1161 570
Q 1363 391 1709 391
Q 2188 391 2477 730
Q 2766 1069 2766 1631
L 2766 1759
L 2194 1759
z
M 3341 1997
L 3341 0
L 2766 0
L 2766 531
Q 2569 213 2275 61
Q 1981 -91 1556 -91
Q 1019 -91 701 211
Q 384 513 384 1019
Q 384 1609 779 1909
Q 1175 2209 1959 2209
L 2766 2209
L 2766 2266
Q 2766 2663 2505 2880
Q 2244 3097 1772 3097
Q 1472 3097 1187 3025
Q 903 2953 641 2809
L 641 3341
Q 956 3463 1253 3523
Q 1550 3584 1831 3584
Q 2591 3584 2966 3190
Q 3341 2797 3341 1997
z
" transform="scale(0.015625)"/>
      </defs>
      <use xlink:href="#DejaVuSans-52"/>
      <use xlink:href="#DejaVuSans-65" x="64.982422"/>
      <use xlink:href="#DejaVuSans-73" x="126.505859"/>
      <use xlink:href="#DejaVuSans-74" x="178.605469"/>
      <use xlink:href="#DejaVuSans-20" x="217.814453"/>
      <use xlink:href="#DejaVuSans-73" x="249.601562"/>
      <use xlink:href="#DejaVuSans-74" x="301.701172"/>
      <use xlink:href="#DejaVuSans-61" x="340.910156"/>
      <use xlink:href="#DejaVuSans-74" x="402.189453"/>
      <use xlink:href="#DejaVuSans-65" x="441.398438"/>
     </g>
    </g>
    <g id="line2d_47">
     <path d="M 77.538281 479.70009
L 87.538281 479.70009
L 97.538281 479.70009
" style="fill: none; stroke: #463480; stroke-opacity: 0.9; stroke-width: 2; stroke-linecap: square"/>
    </g>
    <g id="text_2">
     <!-- s = 0.70 -->
     <g transform="translate(105.538281 483.20009) scale(0.1 -0.1)">
      <defs>
       <path id="DejaVuSans-3d" d="M 678 2906
L 4684 2906
L 4684 2381
L 678 2381
L 678 2906
z
M 678 1631
L 4684 1631
L 4684 1100
L 678 1100
L 678 1631
z
" transform="scale(0.015625)"/>
       <path id="DejaVuSans-30" d="M 2034 4250
Q 1547 4250 1301 3770
Q 1056 3291 1056 2328
Q 1056 1369 1301 889
Q 1547 409 2034 409
Q 2525 409 2770 889
Q 3016 1369 3016 2328
Q 3016 3291 2770 3770
Q 2525 4250 2034 4250
z
M 2034 4750
Q 2819 4750 3233 4129
Q 3647 3509 3647 2328
Q 3647 1150 3233 529
Q 2819 -91 2034 -91
Q 1250 -91 836 529
Q 422 1150 422 2328
Q 422 3509 836 4129
Q 1250 4750 2034 4750
z
" transform="scale(0.015625)"/>
       <path id="DejaVuSans-2e" d="M 684 794
L 1344 794
L 1344 0
L 684 0
L 684 794
z
" transform="scale(0.015625)"/>
       <path id="DejaVuSans-37" d="M 525 4666
L 3525 4666
L 3525 4397
L 1831 0
L 1172 0
L 2766 4134
L 525 4134
L 525 4666
z
" transform="scale(0.015625)"/>
      </defs>
      <use xlink:href="#DejaVuSans-73"/>
      <use xlink:href="#DejaVuSans-20" x="52.099609"/>
      <use xlink:href="#DejaVuSans-3d" x="83.886719"/>
      <use xlink:href="#DejaVuSans-20" x="167.675781"/>
      <use xlink:href="#DejaVuSans-30" x="199.462891"/>
      <use xlink:href="#DejaVuSans-2e" x="263.085938"/>
      <use xlink:href="#DejaVuSans-37" x="294.873047"/>
      <use xlink:href="#DejaVuSans-30" x="358.496094"/>
     </g>
    </g>
    <g id="line2d_48">
     <path d="M 175.828906 465.021965
L 185.828906 465.021965
L 195.828906 465.021965
" style="fill: none; stroke: #2b748e; stroke-opacity: 0.9; stroke-width: 2; stroke-linecap: square"/>
    </g>
    <g id="text_3">
     <!-- s = 0.85 -->
     <g transform="translate(203.828906 468.521965) scale(0.1 -0.1)">
      <defs>
       <path id="DejaVuSans-38" d="M 2034 2216
Q 1584 2216 1326 1975
Q 1069 1734 1069 1313
Q 1069 891 1326 650
Q 1584 409 2034 409
Q 2484 409 2743 651
Q 3003 894 3003 1313
Q 3003 1734 2745 1975
Q 2488 2216 2034 2216
z
M 1403 2484
Q 997 2584 770 2862
Q 544 3141 544 3541
Q 544 4100 942 4425
Q 1341 4750 2034 4750
Q 2731 4750 3128 4425
Q 3525 4100 3525 3541
Q 3525 3141 3298 2862
Q 3072 2584 2669 2484
Q 3125 2378 3379 2068
Q 3634 1759 3634 1313
Q 3634 634 3220 271
Q 2806 -91 2034 -91
Q 1263 -91 848 271
Q 434 634 434 1313
Q 434 1759 690 2068
Q 947 2378 1403 2484
z
M 1172 3481
Q 1172 3119 1398 2916
Q 1625 2713 2034 2713
Q 2441 2713 2670 2916
Q 2900 3119 2900 3481
Q 2900 3844 2670 4047
Q 2441 4250 2034 4250
Q 1625 4250 1398 4047
Q 1172 3844 1172 3481
z
" transform="scale(0.015625)"/>
       <path id="DejaVuSans-35" d="M 691 4666
L 3169 4666
L 3169 4134
L 1269 4134
L 1269 2991
Q 1406 3038 1543 3061
Q 1681 3084 1819 3084
Q 2600 3084 3056 2656
Q 3513 2228 3513 1497
Q 3513 744 3044 326
Q 2575 -91 1722 -91
Q 1428 -91 1123 -41
Q 819 9 494 109
L 494 744
Q 775 591 1075 516
Q 1375 441 1709 441
Q 2250 441 2565 725
Q 2881 1009 2881 1497
Q 2881 1984 2565 2268
Q 2250 2553 1709 2553
Q 1456 2553 1204 2497
Q 953 2441 691 2322
L 691 4666
z
" transform="scale(0.015625)"/>
      </defs>
      <use xlink:href="#DejaVuSans-73"/>
      <use xlink:href="#DejaVuSans-20" x="52.099609"/>
      <use xlink:href="#DejaVuSans-3d" x="83.886719"/>
      <use xlink:href="#DejaVuSans-20" x="167.675781"/>
      <use xlink:href="#DejaVuSans-30" x="199.462891"/>
      <use xlink:href="#DejaVuSans-2e" x="263.085938"/>
      <use xlink:href="#DejaVuSans-38" x="294.873047"/>
      <use xlink:href="#DejaVuSans-35" x="358.496094"/>
     </g>
    </g>
    <g id="line2d_49">
     <path d="M 266.039844 465.021965
L 276.039844 465.021965
L 286.039844 465.021965
" style="fill: none; stroke: #25ac82; stroke-opacity: 0.9; stroke-width: 2; stroke-linecap: square"/>
    </g>
    <g id="text_4">
     <!-- s = 1.15 -->
     <g transform="translate(294.039844 468.521965) scale(0.1 -0.1)">
      <defs>
       <path id="DejaVuSans-31" d="M 794 531
L 1825 531
L 1825 4091
L 703 3866
L 703 4441
L 1819 4666
L 2450 4666
L 2450 531
L 3481 531
L 3481 0
L 794 0
L 794 531
z
" transform="scale(0.015625)"/>
      </defs>
      <use xlink:href="#DejaVuSans-73"/>
      <use xlink:href="#DejaVuSans-20" x="52.099609"/>
      <use xlink:href="#DejaVuSans-3d" x="83.886719"/>
      <use xlink:href="#DejaVuSans-20" x="167.675781"/>
      <use xlink:href="#DejaVuSans-31" x="199.462891"/>
      <use xlink:href="#DejaVuSans-2e" x="263.085938"/>
      <use xlink:href="#DejaVuSans-31" x="294.873047"/>
      <use xlink:href="#DejaVuSans-35" x="358.496094"/>
     </g>
    </g>
    <g id="line2d_50">
     <path d="M 356.250781 465.021965
L 366.250781 465.021965
L 376.250781 465.021965
" style="fill: none; stroke: #9bd93c; stroke-opacity: 0.9; stroke-width: 2; stroke-linecap: square"/>
    </g>
    <g id="text_5">
     <!-- s = 1.30 -->
     <g transform="translate(384.250781 468.521965) scale(0.1 -0.1)">
      <defs>
       <path id="DejaVuSans-33" d="M 2597 2516
Q 3050 2419 3304 2112
Q 3559 1806 3559 1356
Q 3559 666 3084 287
Q 2609 -91 1734 -91
Q 1441 -91 1130 -33
Q 819 25 488 141
L 488 750
Q 750 597 1062 519
Q 1375 441 1716 441
Q 2309 441 2620 675
Q 2931 909 2931 1356
Q 2931 1769 2642 2001
Q 2353 2234 1838 2234
L 1294 2234
L 1294 2753
L 1863 2753
Q 2328 2753 2575 2939
Q 2822 3125 2822 3475
Q 2822 3834 2567 4026
Q 2313 4219 1838 4219
Q 1578 4219 1281 4162
Q 984 4106 628 3988
L 628 4550
Q 988 4650 1302 4700
Q 1616 4750 1894 4750
Q 2613 4750 3031 4423
Q 3450 4097 3450 3541
Q 3450 3153 3228 2886
Q 3006 2619 2597 2516
z
" transform="scale(0.015625)"/>
      </defs>
      <use xlink:href="#DejaVuSans-73"/>
      <use xlink:href="#DejaVuSans-20" x="52.099609"/>
      <use xlink:href="#DejaVuSans-3d" x="83.886719"/>
      <use xlink:href="#DejaVuSans-20" x="167.675781"/>
      <use xlink:href="#DejaVuSans-31" x="199.462891"/>
      <use xlink:href="#DejaVuSans-2e" x="263.085938"/>
      <use xlink:href="#DejaVuSans-33" x="294.873047"/>
      <use xlink:href="#DejaVuSans-30" x="358.496094"/>
     </g>
    </g>
   </g>
  </g>
  <g id="text_6">
   <!-- Isotropic Scaling -->
   <g transform="translate(195.522188 443.52) scale(0.12 -0.12)">
    <defs>
     <path id="DejaVuSans-Bold-49" d="M 588 4666
L 1791 4666
L 1791 0
L 588 0
L 588 4666
z
" transform="scale(0.015625)"/>
     <path id="DejaVuSans-Bold-73" d="M 3272 3391
L 3272 2541
Q 2913 2691 2578 2766
Q 2244 2841 1947 2841
Q 1628 2841 1473 2761
Q 1319 2681 1319 2516
Q 1319 2381 1436 2309
Q 1553 2238 1856 2203
L 2053 2175
Q 2913 2066 3209 1816
Q 3506 1566 3506 1031
Q 3506 472 3093 190
Q 2681 -91 1863 -91
Q 1516 -91 1145 -36
Q 775 19 384 128
L 384 978
Q 719 816 1070 734
Q 1422 653 1784 653
Q 2113 653 2278 743
Q 2444 834 2444 1013
Q 2444 1163 2330 1236
Q 2216 1309 1875 1350
L 1678 1375
Q 931 1469 631 1722
Q 331 1975 331 2491
Q 331 3047 712 3315
Q 1094 3584 1881 3584
Q 2191 3584 2531 3537
Q 2872 3491 3272 3391
z
" transform="scale(0.015625)"/>
     <path id="DejaVuSans-Bold-6f" d="M 2203 2784
Q 1831 2784 1636 2517
Q 1441 2250 1441 1747
Q 1441 1244 1636 976
Q 1831 709 2203 709
Q 2569 709 2762 976
Q 2956 1244 2956 1747
Q 2956 2250 2762 2517
Q 2569 2784 2203 2784
z
M 2203 3584
Q 3106 3584 3614 3096
Q 4122 2609 4122 1747
Q 4122 884 3614 396
Q 3106 -91 2203 -91
Q 1297 -91 786 396
Q 275 884 275 1747
Q 275 2609 786 3096
Q 1297 3584 2203 3584
z
" transform="scale(0.015625)"/>
     <path id="DejaVuSans-Bold-74" d="M 1759 4494
L 1759 3500
L 2913 3500
L 2913 2700
L 1759 2700
L 1759 1216
Q 1759 972 1856 886
Q 1953 800 2241 800
L 2816 800
L 2816 0
L 1856 0
Q 1194 0 917 276
Q 641 553 641 1216
L 641 2700
L 84 2700
L 84 3500
L 641 3500
L 641 4494
L 1759 4494
z
" transform="scale(0.015625)"/>
     <path id="DejaVuSans-Bold-72" d="M 3138 2547
Q 2991 2616 2845 2648
Q 2700 2681 2553 2681
Q 2122 2681 1889 2404
Q 1656 2128 1656 1613
L 1656 0
L 538 0
L 538 3500
L 1656 3500
L 1656 2925
Q 1872 3269 2151 3426
Q 2431 3584 2822 3584
Q 2878 3584 2943 3579
Q 3009 3575 3134 3559
L 3138 2547
z
" transform="scale(0.015625)"/>
     <path id="DejaVuSans-Bold-70" d="M 1656 506
L 1656 -1331
L 538 -1331
L 538 3500
L 1656 3500
L 1656 2988
Q 1888 3294 2169 3439
Q 2450 3584 2816 3584
Q 3463 3584 3878 3070
Q 4294 2556 4294 1747
Q 4294 938 3878 423
Q 3463 -91 2816 -91
Q 2450 -91 2169 54
Q 1888 200 1656 506
z
M 2400 2772
Q 2041 2772 1848 2508
Q 1656 2244 1656 1747
Q 1656 1250 1848 986
Q 2041 722 2400 722
Q 2759 722 2948 984
Q 3138 1247 3138 1747
Q 3138 2247 2948 2509
Q 2759 2772 2400 2772
z
" transform="scale(0.015625)"/>
     <path id="DejaVuSans-Bold-69" d="M 538 3500
L 1656 3500
L 1656 0
L 538 0
L 538 3500
z
M 538 4863
L 1656 4863
L 1656 3950
L 538 3950
L 538 4863
z
" transform="scale(0.015625)"/>
     <path id="DejaVuSans-Bold-63" d="M 3366 3391
L 3366 2478
Q 3138 2634 2908 2709
Q 2678 2784 2431 2784
Q 1963 2784 1702 2511
Q 1441 2238 1441 1747
Q 1441 1256 1702 982
Q 1963 709 2431 709
Q 2694 709 2930 787
Q 3166 866 3366 1019
L 3366 103
Q 3103 6 2833 -42
Q 2563 -91 2291 -91
Q 1344 -91 809 395
Q 275 881 275 1747
Q 275 2613 809 3098
Q 1344 3584 2291 3584
Q 2566 3584 2833 3536
Q 3100 3488 3366 3391
z
" transform="scale(0.015625)"/>
     <path id="DejaVuSans-Bold-20" transform="scale(0.015625)"/>
     <path id="DejaVuSans-Bold-53" d="M 3834 4519
L 3834 3531
Q 3450 3703 3084 3790
Q 2719 3878 2394 3878
Q 1963 3878 1756 3759
Q 1550 3641 1550 3391
Q 1550 3203 1689 3098
Q 1828 2994 2194 2919
L 2706 2816
Q 3484 2659 3812 2340
Q 4141 2022 4141 1434
Q 4141 663 3683 286
Q 3225 -91 2284 -91
Q 1841 -91 1394 -6
Q 947 78 500 244
L 500 1259
Q 947 1022 1364 901
Q 1781 781 2169 781
Q 2563 781 2772 912
Q 2981 1044 2981 1288
Q 2981 1506 2839 1625
Q 2697 1744 2272 1838
L 1806 1941
Q 1106 2091 782 2419
Q 459 2747 459 3303
Q 459 4000 909 4375
Q 1359 4750 2203 4750
Q 2588 4750 2994 4692
Q 3400 4634 3834 4519
z
" transform="scale(0.015625)"/>
     <path id="DejaVuSans-Bold-61" d="M 2106 1575
Q 1756 1575 1579 1456
Q 1403 1338 1403 1106
Q 1403 894 1545 773
Q 1688 653 1941 653
Q 2256 653 2472 879
Q 2688 1106 2688 1447
L 2688 1575
L 2106 1575
z
M 3816 1997
L 3816 0
L 2688 0
L 2688 519
Q 2463 200 2181 54
Q 1900 -91 1497 -91
Q 953 -91 614 226
Q 275 544 275 1050
Q 275 1666 698 1953
Q 1122 2241 2028 2241
L 2688 2241
L 2688 2328
Q 2688 2594 2478 2717
Q 2269 2841 1825 2841
Q 1466 2841 1156 2769
Q 847 2697 581 2553
L 581 3406
Q 941 3494 1303 3539
Q 1666 3584 2028 3584
Q 2975 3584 3395 3211
Q 3816 2838 3816 1997
z
" transform="scale(0.015625)"/>
     <path id="DejaVuSans-Bold-6c" d="M 538 4863
L 1656 4863
L 1656 0
L 538 0
L 538 4863
z
" transform="scale(0.015625)"/>
     <path id="DejaVuSans-Bold-6e" d="M 4056 2131
L 4056 0
L 2931 0
L 2931 347
L 2931 1631
Q 2931 2084 2911 2256
Q 2891 2428 2841 2509
Q 2775 2619 2662 2680
Q 2550 2741 2406 2741
Q 2056 2741 1856 2470
Q 1656 2200 1656 1722
L 1656 0
L 538 0
L 538 3500
L 1656 3500
L 1656 2988
Q 1909 3294 2193 3439
Q 2478 3584 2822 3584
Q 3428 3584 3742 3212
Q 4056 2841 4056 2131
z
" transform="scale(0.015625)"/>
     <path id="DejaVuSans-Bold-67" d="M 2919 594
Q 2688 288 2409 144
Q 2131 0 1766 0
Q 1125 0 706 504
Q 288 1009 288 1791
Q 288 2575 706 3076
Q 1125 3578 1766 3578
Q 2131 3578 2409 3434
Q 2688 3291 2919 2981
L 2919 3500
L 4044 3500
L 4044 353
Q 4044 -491 3511 -936
Q 2978 -1381 1966 -1381
Q 1638 -1381 1331 -1331
Q 1025 -1281 716 -1178
L 716 -306
Q 1009 -475 1290 -558
Q 1572 -641 1856 -641
Q 2406 -641 2662 -400
Q 2919 -159 2919 353
L 2919 594
z
M 2181 2772
Q 1834 2772 1640 2515
Q 1447 2259 1447 1791
Q 1447 1309 1634 1061
Q 1822 813 2181 813
Q 2531 813 2725 1069
Q 2919 1325 2919 1791
Q 2919 2259 2725 2515
Q 2531 2772 2181 2772
z
" transform="scale(0.015625)"/>
    </defs>
    <use xlink:href="#DejaVuSans-Bold-49"/>
    <use xlink:href="#DejaVuSans-Bold-73" x="37.207031"/>
    <use xlink:href="#DejaVuSans-Bold-6f" x="96.728516"/>
    <use xlink:href="#DejaVuSans-Bold-74" x="165.429688"/>
    <use xlink:href="#DejaVuSans-Bold-72" x="213.232422"/>
    <use xlink:href="#DejaVuSans-Bold-6f" x="262.548828"/>
    <use xlink:href="#DejaVuSans-Bold-70" x="331.25"/>
    <use xlink:href="#DejaVuSans-Bold-69" x="402.832031"/>
    <use xlink:href="#DejaVuSans-Bold-63" x="437.109375"/>
    <use xlink:href="#DejaVuSans-Bold-20" x="496.386719"/>
    <use xlink:href="#DejaVuSans-Bold-53" x="531.201172"/>
    <use xlink:href="#DejaVuSans-Bold-63" x="603.222656"/>
    <use xlink:href="#DejaVuSans-Bold-61" x="662.5"/>
    <use xlink:href="#DejaVuSans-Bold-6c" x="729.980469"/>
    <use xlink:href="#DejaVuSans-Bold-69" x="764.257812"/>
    <use xlink:href="#DejaVuSans-Bold-6e" x="798.535156"/>
    <use xlink:href="#DejaVuSans-Bold-67" x="869.726562"/>
   </g>
  </g>
 </g>
 <defs>
  <clipPath id="p020af88687">
   <rect x="15" y="15" width="474" height="424.1976"/>
  </clipPath>
 </defs>
</svg>
