<?xml version="1.0" encoding="utf-8" standalone="no"?>
<!DOCTYPE svg PUBLIC "-//W3C//DTD SVG 1.1//EN"
  "http://www.w3.org/Graphics/SVG/1.1/DTD/svg11.dtd">
<svg xmlns:xlink="http://www.w3.org/1999/xlink" width="504pt" height="360pt" viewBox="0 0 504 360" xmlns="http://www.w3.org/2000/svg" version="1.1">
 <metadata>
  <rdf:RDF xmlns:dc="http://purl.org/dc/elements/1.1/" xmlns:cc="http://creativecommons.org/ns#" xmlns:rdf="http://www.w3.org/1999/02/22-rdf-syntax-ns#">
   <cc:Work>
    <dc:type rdf:resource="http://purl.org/dc/dcmitype/StillImage"/>
    <dc:date>2025-04-08T16:48:53.347480</dc:date>
    <dc:format>image/svg+xml</dc:format>
    <dc:creator>
     <cc:Agent>
      <dc:title>Matplotlib v3.9.3, https://matplotlib.org/</dc:title>
     </cc:Agent>
    </dc:creator>
   </cc:Work>
  </rdf:RDF>
 </metadata>
 <defs>
  <style type="text/css">*{stroke-linejoin: round; stroke-linecap: butt}</style>
 </defs>
 <g id="figure_1">
  <g id="patch_1">
   <path d="M 0 360
L 504 360
L 504 0
L 0 0
z
" style="fill: #ffffff"/>
  </g>
  <g id="axes_1">
   <g id="patch_2">
    <path d="M 173.868132 291.509538
L 434.307692 291.509538
L 330.131868 51.066462
L 69.692308 51.066462
z
" clip-path="url(#p44f0dfc425)" style="fill: #5601a4; opacity: 0.1"/>
   </g>
   <g id="patch_3">
    <path d="M 147.824176 291.509538
L 408.263736 291.509538
L 356.175824 51.066462
L 95.736264 51.066462
z
" clip-path="url(#p44f0dfc425)" style="fill: #ac2694; opacity: 0.1"/>
   </g>
   <g id="patch_4">
    <path d="M 95.736264 291.509538
L 356.175824 291.509538
L 408.263736 51.066462
L 147.824176 51.066462
z
" clip-path="url(#p44f0dfc425)" style="fill: #e4695e; opacity: 0.1"/>
   </g>
   <g id="patch_5">
    <path d="M 69.692308 291.509538
L 330.131868 291.509538
L 434.307692 51.066462
L 173.868132 51.066462
z
" clip-path="url(#p44f0dfc425)" style="fill: #feba2c; opacity: 0.1"/>
   </g>
   <g id="line2d_1">
    <path d="M 121.78022 291.509538
L 382.21978 291.509538
L 382.21978 51.066462
L 121.78022 51.066462
L 121.78022 291.509538
" clip-path="url(#p44f0dfc425)" style="fill: none; stroke-dasharray: 4.44,1.92; stroke-dashoffset: 0; stroke: #000000; stroke-opacity: 0.7; stroke-width: 1.2"/>
   </g>
   <g id="line2d_2">
    <path d="M 173.868132 291.509538
L 434.307692 291.509538
L 330.131868 51.066462
L 69.692308 51.066462
L 173.868132 291.509538
" clip-path="url(#p44f0dfc425)" style="fill: none; stroke: #5601a4; stroke-opacity: 0.9; stroke-width: 2; stroke-linecap: square"/>
   </g>
   <g id="line2d_3">
    <path d="M 173.868132 291.509538
L 434.307692 291.509538
" clip-path="url(#p44f0dfc425)" style="fill: none; stroke: #5601a4; stroke-opacity: 0.15; stroke-width: 0.8; stroke-linecap: square"/>
   </g>
   <g id="line2d_4">
    <path d="M 173.868132 291.509538
L 69.692308 51.066462
" clip-path="url(#p44f0dfc425)" style="fill: none; stroke: #5601a4; stroke-opacity: 0.15; stroke-width: 0.8; stroke-linecap: square"/>
   </g>
   <g id="line2d_5">
    <path d="M 147.824176 231.398769
L 408.263736 231.398769
" clip-path="url(#p44f0dfc425)" style="fill: none; stroke: #5601a4; stroke-opacity: 0.15; stroke-width: 0.8; stroke-linecap: square"/>
   </g>
   <g id="line2d_6">
    <path d="M 238.978022 291.509538
L 134.802198 51.066462
" clip-path="url(#p44f0dfc425)" style="fill: none; stroke: #5601a4; stroke-opacity: 0.15; stroke-width: 0.8; stroke-linecap: square"/>
   </g>
   <g id="line2d_7">
    <path d="M 121.78022 171.288
L 382.21978 171.288
" clip-path="url(#p44f0dfc425)" style="fill: none; stroke: #5601a4; stroke-opacity: 0.15; stroke-width: 0.8; stroke-linecap: square"/>
   </g>
   <g id="line2d_8">
    <path d="M 304.087912 291.509538
L 199.912088 51.066462
" clip-path="url(#p44f0dfc425)" style="fill: none; stroke: #5601a4; stroke-opacity: 0.15; stroke-width: 0.8; stroke-linecap: square"/>
   </g>
   <g id="line2d_9">
    <path d="M 95.736264 111.177231
L 356.175824 111.177231
" clip-path="url(#p44f0dfc425)" style="fill: none; stroke: #5601a4; stroke-opacity: 0.15; stroke-width: 0.8; stroke-linecap: square"/>
   </g>
   <g id="line2d_10">
    <path d="M 369.197802 291.509538
L 265.021978 51.066462
" clip-path="url(#p44f0dfc425)" style="fill: none; stroke: #5601a4; stroke-opacity: 0.15; stroke-width: 0.8; stroke-linecap: square"/>
   </g>
   <g id="line2d_11">
    <path d="M 69.692308 51.066462
L 330.131868 51.066462
" clip-path="url(#p44f0dfc425)" style="fill: none; stroke: #5601a4; stroke-opacity: 0.15; stroke-width: 0.8; stroke-linecap: square"/>
   </g>
   <g id="line2d_12">
    <path d="M 434.307692 291.509538
L 330.131868 51.066462
" clip-path="url(#p44f0dfc425)" style="fill: none; stroke: #5601a4; stroke-opacity: 0.15; stroke-width: 0.8; stroke-linecap: square"/>
   </g>
   <g id="line2d_13">
    <path d="M 147.824176 291.509538
L 408.263736 291.509538
L 356.175824 51.066462
L 95.736264 51.066462
L 147.824176 291.509538
" clip-path="url(#p44f0dfc425)" style="fill: none; stroke: #ac2694; stroke-opacity: 0.9; stroke-width: 2; stroke-linecap: square"/>
   </g>
   <g id="line2d_14">
    <path d="M 147.824176 291.509538
L 408.263736 291.509538
" clip-path="url(#p44f0dfc425)" style="fill: none; stroke: #ac2694; stroke-opacity: 0.15; stroke-width: 0.8; stroke-linecap: square"/>
   </g>
   <g id="line2d_15">
    <path d="M 147.824176 291.509538
L 95.736264 51.066462
" clip-path="url(#p44f0dfc425)" style="fill: none; stroke: #ac2694; stroke-opacity: 0.15; stroke-width: 0.8; stroke-linecap: square"/>
   </g>
   <g id="line2d_16">
    <path d="M 134.802198 231.398769
L 395.241758 231.398769
" clip-path="url(#p44f0dfc425)" style="fill: none; stroke: #ac2694; stroke-opacity: 0.15; stroke-width: 0.8; stroke-linecap: square"/>
   </g>
   <g id="line2d_17">
    <path d="M 212.934066 291.509538
L 160.846154 51.066462
" clip-path="url(#p44f0dfc425)" style="fill: none; stroke: #ac2694; stroke-opacity: 0.15; stroke-width: 0.8; stroke-linecap: square"/>
   </g>
   <g id="line2d_18">
    <path d="M 121.78022 171.288
L 382.21978 171.288
" clip-path="url(#p44f0dfc425)" style="fill: none; stroke: #ac2694; stroke-opacity: 0.15; stroke-width: 0.8; stroke-linecap: square"/>
   </g>
   <g id="line2d_19">
    <path d="M 278.043956 291.509538
L 225.956044 51.066462
" clip-path="url(#p44f0dfc425)" style="fill: none; stroke: #ac2694; stroke-opacity: 0.15; stroke-width: 0.8; stroke-linecap: square"/>
   </g>
   <g id="line2d_20">
    <path d="M 108.758242 111.177231
L 369.197802 111.177231
" clip-path="url(#p44f0dfc425)" style="fill: none; stroke: #ac2694; stroke-opacity: 0.15; stroke-width: 0.8; stroke-linecap: square"/>
   </g>
   <g id="line2d_21">
    <path d="M 343.153846 291.509538
L 291.065934 51.066462
" clip-path="url(#p44f0dfc425)" style="fill: none; stroke: #ac2694; stroke-opacity: 0.15; stroke-width: 0.8; stroke-linecap: square"/>
   </g>
   <g id="line2d_22">
    <path d="M 95.736264 51.066462
L 356.175824 51.066462
" clip-path="url(#p44f0dfc425)" style="fill: none; stroke: #ac2694; stroke-opacity: 0.15; stroke-width: 0.8; stroke-linecap: square"/>
   </g>
   <g id="line2d_23">
    <path d="M 408.263736 291.509538
L 356.175824 51.066462
" clip-path="url(#p44f0dfc425)" style="fill: none; stroke: #ac2694; stroke-opacity: 0.15; stroke-width: 0.8; stroke-linecap: square"/>
   </g>
   <g id="line2d_24">
    <path d="M 95.736264 291.509538
L 356.175824 291.509538
L 408.263736 51.066462
L 147.824176 51.066462
L 95.736264 291.509538
" clip-path="url(#p44f0dfc425)" style="fill: none; stroke: #e4695e; stroke-opacity: 0.9; stroke-width: 2; stroke-linecap: square"/>
   </g>
   <g id="line2d_25">
    <path d="M 95.736264 291.509538
L 356.175824 291.509538
" clip-path="url(#p44f0dfc425)" style="fill: none; stroke: #e4695e; stroke-opacity: 0.15; stroke-width: 0.8; stroke-linecap: square"/>
   </g>
   <g id="line2d_26">
    <path d="M 95.736264 291.509538
L 147.824176 51.066462
" clip-path="url(#p44f0dfc425)" style="fill: none; stroke: #e4695e; stroke-opacity: 0.15; stroke-width: 0.8; stroke-linecap: square"/>
   </g>
   <g id="line2d_27">
    <path d="M 108.758242 231.398769
L 369.197802 231.398769
" clip-path="url(#p44f0dfc425)" style="fill: none; stroke: #e4695e; stroke-opacity: 0.15; stroke-width: 0.8; stroke-linecap: square"/>
   </g>
   <g id="line2d_28">
    <path d="M 160.846154 291.509538
L 212.934066 51.066462
" clip-path="url(#p44f0dfc425)" style="fill: none; stroke: #e4695e; stroke-opacity: 0.15; stroke-width: 0.8; stroke-linecap: square"/>
   </g>
   <g id="line2d_29">
    <path d="M 121.78022 171.288
L 382.21978 171.288
" clip-path="url(#p44f0dfc425)" style="fill: none; stroke: #e4695e; stroke-opacity: 0.15; stroke-width: 0.8; stroke-linecap: square"/>
   </g>
   <g id="line2d_30">
    <path d="M 225.956044 291.509538
L 278.043956 51.066462
" clip-path="url(#p44f0dfc425)" style="fill: none; stroke: #e4695e; stroke-opacity: 0.15; stroke-width: 0.8; stroke-linecap: square"/>
   </g>
   <g id="line2d_31">
    <path d="M 134.802198 111.177231
L 395.241758 111.177231
" clip-path="url(#p44f0dfc425)" style="fill: none; stroke: #e4695e; stroke-opacity: 0.15; stroke-width: 0.8; stroke-linecap: square"/>
   </g>
   <g id="line2d_32">
    <path d="M 291.065934 291.509538
L 343.153846 51.066462
" clip-path="url(#p44f0dfc425)" style="fill: none; stroke: #e4695e; stroke-opacity: 0.15; stroke-width: 0.8; stroke-linecap: square"/>
   </g>
   <g id="line2d_33">
    <path d="M 147.824176 51.066462
L 408.263736 51.066462
" clip-path="url(#p44f0dfc425)" style="fill: none; stroke: #e4695e; stroke-opacity: 0.15; stroke-width: 0.8; stroke-linecap: square"/>
   </g>
   <g id="line2d_34">
    <path d="M 356.175824 291.509538
L 408.263736 51.066462
" clip-path="url(#p44f0dfc425)" style="fill: none; stroke: #e4695e; stroke-opacity: 0.15; stroke-width: 0.8; stroke-linecap: square"/>
   </g>
   <g id="line2d_35">
    <path d="M 69.692308 291.509538
L 330.131868 291.509538
L 434.307692 51.066462
L 173.868132 51.066462
L 69.692308 291.509538
" clip-path="url(#p44f0dfc425)" style="fill: none; stroke: #feba2c; stroke-opacity: 0.9; stroke-width: 2; stroke-linecap: square"/>
   </g>
   <g id="line2d_36">
    <path d="M 69.692308 291.509538
L 330.131868 291.509538
" clip-path="url(#p44f0dfc425)" style="fill: none; stroke: #feba2c; stroke-opacity: 0.15; stroke-width: 0.8; stroke-linecap: square"/>
   </g>
   <g id="line2d_37">
    <path d="M 69.692308 291.509538
L 173.868132 51.066462
" clip-path="url(#p44f0dfc425)" style="fill: none; stroke: #feba2c; stroke-opacity: 0.15; stroke-width: 0.8; stroke-linecap: square"/>
   </g>
   <g id="line2d_38">
    <path d="M 95.736264 231.398769
L 356.175824 231.398769
" clip-path="url(#p44f0dfc425)" style="fill: none; stroke: #feba2c; stroke-opacity: 0.15; stroke-width: 0.8; stroke-linecap: square"/>
   </g>
   <g id="line2d_39">
    <path d="M 134.802198 291.509538
L 238.978022 51.066462
" clip-path="url(#p44f0dfc425)" style="fill: none; stroke: #feba2c; stroke-opacity: 0.15; stroke-width: 0.8; stroke-linecap: square"/>
   </g>
   <g id="line2d_40">
    <path d="M 121.78022 171.288
L 382.21978 171.288
" clip-path="url(#p44f0dfc425)" style="fill: none; stroke: #feba2c; stroke-opacity: 0.15; stroke-width: 0.8; stroke-linecap: square"/>
   </g>
   <g id="line2d_41">
    <path d="M 199.912088 291.509538
L 304.087912 51.066462
" clip-path="url(#p44f0dfc425)" style="fill: none; stroke: #feba2c; stroke-opacity: 0.15; stroke-width: 0.8; stroke-linecap: square"/>
   </g>
   <g id="line2d_42">
    <path d="M 147.824176 111.177231
L 408.263736 111.177231
" clip-path="url(#p44f0dfc425)" style="fill: none; stroke: #feba2c; stroke-opacity: 0.15; stroke-width: 0.8; stroke-linecap: square"/>
   </g>
   <g id="line2d_43">
    <path d="M 265.021978 291.509538
L 369.197802 51.066462
" clip-path="url(#p44f0dfc425)" style="fill: none; stroke: #feba2c; stroke-opacity: 0.15; stroke-width: 0.8; stroke-linecap: square"/>
   </g>
   <g id="line2d_44">
    <path d="M 173.868132 51.066462
L 434.307692 51.066462
" clip-path="url(#p44f0dfc425)" style="fill: none; stroke: #feba2c; stroke-opacity: 0.15; stroke-width: 0.8; stroke-linecap: square"/>
   </g>
   <g id="line2d_45">
    <path d="M 330.131868 291.509538
L 434.307692 51.066462
" clip-path="url(#p44f0dfc425)" style="fill: none; stroke: #feba2c; stroke-opacity: 0.15; stroke-width: 0.8; stroke-linecap: square"/>
   </g>
   <g id="legend_1">
    <g id="patch_6">
     <path d="M 73.154687 339.946483
L 430.845312 339.946483
Q 432.845312 339.946483 432.845312 337.946483
L 432.845312 309.56992
Q 432.845312 307.56992 430.845312 307.56992
L 73.154687 307.56992
Q 71.154687 307.56992 71.154687 309.56992
L 71.154687 337.946483
Q 71.154687 339.946483 73.154687 339.946483
z
" style="fill: #ffffff; opacity: 0.7; stroke: #cccccc; stroke-linejoin: miter"/>
    </g>
    <g id="line2d_46">
     <path d="M 75.154687 315.668358
L 85.154687 315.668358
L 95.154687 315.668358
" style="fill: none; stroke-dasharray: 4.44,1.92; stroke-dashoffset: 0; stroke: #000000; stroke-opacity: 0.7; stroke-width: 1.2"/>
    </g>
    <g id="text_1">
     <!-- Rest state -->
     <g transform="translate(103.154687 319.168358) scale(0.1 -0.1)">
      <defs>
       <path id="DejaVuSans-52" d="M 2841 2188
Q 3044 2119 3236 1894
Q 3428 1669 3622 1275
L 4263 0
L 3584 0
L 2988 1197
Q 2756 1666 2539 1819
Q 2322 1972 1947 1972
L 1259 1972
L 1259 0
L 628 0
L 628 4666
L 2053 4666
Q 2853 4666 3247 4331
Q 3641 3997 3641 3322
Q 3641 2881 3436 2590
Q 3231 2300 2841 2188
z
M 1259 4147
L 1259 2491
L 2053 2491
Q 2509 2491 2742 2702
Q 2975 2913 2975 3322
Q 2975 3731 2742 3939
Q 2509 4147 2053 4147
L 1259 4147
z
" transform="scale(0.015625)"/>
       <path id="DejaVuSans-65" d="M 3597 1894
L 3597 1613
L 953 1613
Q 991 1019 1311 708
Q 1631 397 2203 397
Q 2534 397 2845 478
Q 3156 559 3463 722
L 3463 178
Q 3153 47 2828 -22
Q 2503 -91 2169 -91
Q 1331 -91 842 396
Q 353 884 353 1716
Q 353 2575 817 3079
Q 1281 3584 2069 3584
Q 2775 3584 3186 3129
Q 3597 2675 3597 1894
z
M 3022 2063
Q 3016 2534 2758 2815
Q 2500 3097 2075 3097
Q 1594 3097 1305 2825
Q 1016 2553 972 2059
L 3022 2063
z
" transform="scale(0.015625)"/>
       <path id="DejaVuSans-73" d="M 2834 3397
L 2834 2853
Q 2591 2978 2328 3040
Q 2066 3103 1784 3103
Q 1356 3103 1142 2972
Q 928 2841 928 2578
Q 928 2378 1081 2264
Q 1234 2150 1697 2047
L 1894 2003
Q 2506 1872 2764 1633
Q 3022 1394 3022 966
Q 3022 478 2636 193
Q 2250 -91 1575 -91
Q 1294 -91 989 -36
Q 684 19 347 128
L 347 722
Q 666 556 975 473
Q 1284 391 1588 391
Q 1994 391 2212 530
Q 2431 669 2431 922
Q 2431 1156 2273 1281
Q 2116 1406 1581 1522
L 1381 1569
Q 847 1681 609 1914
Q 372 2147 372 2553
Q 372 3047 722 3315
Q 1072 3584 1716 3584
Q 2034 3584 2315 3537
Q 2597 3491 2834 3397
z
" transform="scale(0.015625)"/>
       <path id="DejaVuSans-74" d="M 1172 4494
L 1172 3500
L 2356 3500
L 2356 3053
L 1172 3053
L 1172 1153
Q 1172 725 1289 603
Q 1406 481 1766 481
L 2356 481
L 2356 0
L 1766 0
Q 1100 0 847 248
Q 594 497 594 1153
L 594 3053
L 172 3053
L 172 3500
L 594 3500
L 594 4494
L 1172 4494
z
" transform="scale(0.015625)"/>
       <path id="DejaVuSans-20" transform="scale(0.015625)"/>
       <path id="DejaVuSans-61" d="M 2194 1759
Q 1497 1759 1228 1600
Q 959 1441 959 1056
Q 959 750 1161 570
Q 1363 391 1709 391
Q 2188 391 2477 730
Q 2766 1069 2766 1631
L 2766 1759
L 2194 1759
z
M 3341 1997
L 3341 0
L 2766 0
L 2766 531
Q 2569 213 2275 61
Q 1981 -91 1556 -91
Q 1019 -91 701 211
Q 384 513 384 1019
Q 384 1609 779 1909
Q 1175 2209 1959 2209
L 2766 2209
L 2766 2266
Q 2766 2663 2505 2880
Q 2244 3097 1772 3097
Q 1472 3097 1187 3025
Q 903 2953 641 2809
L 641 3341
Q 956 3463 1253 3523
Q 1550 3584 1831 3584
Q 2591 3584 2966 3190
Q 3341 2797 3341 1997
z
" transform="scale(0.015625)"/>
      </defs>
      <use xlink:href="#DejaVuSans-52"/>
      <use xlink:href="#DejaVuSans-65" x="64.982422"/>
      <use xlink:href="#DejaVuSans-73" x="126.505859"/>
      <use xlink:href="#DejaVuSans-74" x="178.605469"/>
      <use xlink:href="#DejaVuSans-20" x="217.814453"/>
      <use xlink:href="#DejaVuSans-73" x="249.601562"/>
      <use xlink:href="#DejaVuSans-74" x="301.701172"/>
      <use xlink:href="#DejaVuSans-61" x="340.910156"/>
      <use xlink:href="#DejaVuSans-74" x="402.189453"/>
      <use xlink:href="#DejaVuSans-65" x="441.398438"/>
     </g>
    </g>
    <g id="line2d_47">
     <path d="M 75.154687 330.346483
L 85.154687 330.346483
L 95.154687 330.346483
" style="fill: none; stroke: #5601a4; stroke-opacity: 0.9; stroke-width: 2; stroke-linecap: square"/>
    </g>
    <g id="text_2">
     <!-- $\gamma$ = -0.40 -->
     <g transform="translate(103.154687 333.846483) scale(0.1 -0.1)">
      <defs>
       <path id="DejaVuSans-Oblique-3b3" d="M 1491 2950
L 1838 788
L 3456 3500
L 4066 3500
L 1972 0
L 1713 -1331
L 1138 -1331
L 1397 0
L 988 2613
Q 925 3006 628 3006
L 475 3006
L 569 3500
L 788 3500
Q 1403 3500 1491 2950
z
" transform="scale(0.015625)"/>
       <path id="DejaVuSans-3d" d="M 678 2906
L 4684 2906
L 4684 2381
L 678 2381
L 678 2906
z
M 678 1631
L 4684 1631
L 4684 1100
L 678 1100
L 678 1631
z
" transform="scale(0.015625)"/>
       <path id="DejaVuSans-2d" d="M 313 2009
L 1997 2009
L 1997 1497
L 313 1497
L 313 2009
z
" transform="scale(0.015625)"/>
       <path id="DejaVuSans-30" d="M 2034 4250
Q 1547 4250 1301 3770
Q 1056 3291 1056 2328
Q 1056 1369 1301 889
Q 1547 409 2034 409
Q 2525 409 2770 889
Q 3016 1369 3016 2328
Q 3016 3291 2770 3770
Q 2525 4250 2034 4250
z
M 2034 4750
Q 2819 4750 3233 4129
Q 3647 3509 3647 2328
Q 3647 1150 3233 529
Q 2819 -91 2034 -91
Q 1250 -91 836 529
Q 422 1150 422 2328
Q 422 3509 836 4129
Q 1250 4750 2034 4750
z
" transform="scale(0.015625)"/>
       <path id="DejaVuSans-2e" d="M 684 794
L 1344 794
L 1344 0
L 684 0
L 684 794
z
" transform="scale(0.015625)"/>
       <path id="DejaVuSans-34" d="M 2419 4116
L 825 1625
L 2419 1625
L 2419 4116
z
M 2253 4666
L 3047 4666
L 3047 1625
L 3713 1625
L 3713 1100
L 3047 1100
L 3047 0
L 2419 0
L 2419 1100
L 313 1100
L 313 1709
L 2253 4666
z
" transform="scale(0.015625)"/>
      </defs>
      <use xlink:href="#DejaVuSans-Oblique-3b3" transform="translate(0 0.78125)"/>
      <use xlink:href="#DejaVuSans-20" transform="translate(59.179688 0.78125)"/>
      <use xlink:href="#DejaVuSans-3d" transform="translate(90.966797 0.78125)"/>
      <use xlink:href="#DejaVuSans-20" transform="translate(174.755859 0.78125)"/>
      <use xlink:href="#DejaVuSans-2d" transform="translate(206.542969 0.78125)"/>
      <use xlink:href="#DejaVuSans-30" transform="translate(242.626953 0.78125)"/>
      <use xlink:href="#DejaVuSans-2e" transform="translate(306.25 0.78125)"/>
      <use xlink:href="#DejaVuSans-34" transform="translate(338.037109 0.78125)"/>
      <use xlink:href="#DejaVuSans-30" transform="translate(401.660156 0.78125)"/>
     </g>
    </g>
    <g id="line2d_48">
     <path d="M 173.445312 315.668358
L 183.445312 315.668358
L 193.445312 315.668358
" style="fill: none; stroke: #ac2694; stroke-opacity: 0.9; stroke-width: 2; stroke-linecap: square"/>
    </g>
    <g id="text_3">
     <!-- $\gamma$ = -0.20 -->
     <g transform="translate(201.445312 319.168358) scale(0.1 -0.1)">
      <defs>
       <path id="DejaVuSans-32" d="M 1228 531
L 3431 531
L 3431 0
L 469 0
L 469 531
Q 828 903 1448 1529
Q 2069 2156 2228 2338
Q 2531 2678 2651 2914
Q 2772 3150 2772 3378
Q 2772 3750 2511 3984
Q 2250 4219 1831 4219
Q 1534 4219 1204 4116
Q 875 4013 500 3803
L 500 4441
Q 881 4594 1212 4672
Q 1544 4750 1819 4750
Q 2544 4750 2975 4387
Q 3406 4025 3406 3419
Q 3406 3131 3298 2873
Q 3191 2616 2906 2266
Q 2828 2175 2409 1742
Q 1991 1309 1228 531
z
" transform="scale(0.015625)"/>
      </defs>
      <use xlink:href="#DejaVuSans-Oblique-3b3" transform="translate(0 0.78125)"/>
      <use xlink:href="#DejaVuSans-20" transform="translate(59.179688 0.78125)"/>
      <use xlink:href="#DejaVuSans-3d" transform="translate(90.966797 0.78125)"/>
      <use xlink:href="#DejaVuSans-20" transform="translate(174.755859 0.78125)"/>
      <use xlink:href="#DejaVuSans-2d" transform="translate(206.542969 0.78125)"/>
      <use xlink:href="#DejaVuSans-30" transform="translate(242.626953 0.78125)"/>
      <use xlink:href="#DejaVuSans-2e" transform="translate(306.25 0.78125)"/>
      <use xlink:href="#DejaVuSans-32" transform="translate(332.537109 0.78125)"/>
      <use xlink:href="#DejaVuSans-30" transform="translate(396.160156 0.78125)"/>
     </g>
    </g>
    <g id="line2d_49">
     <path d="M 267.445312 315.668358
L 277.445312 315.668358
L 287.445312 315.668358
" style="fill: none; stroke: #e4695e; stroke-opacity: 0.9; stroke-width: 2; stroke-linecap: square"/>
    </g>
    <g id="text_4">
     <!-- $\gamma$ = 0.20 -->
     <g transform="translate(295.445312 319.168358) scale(0.1 -0.1)">
      <use xlink:href="#DejaVuSans-Oblique-3b3" transform="translate(0 0.78125)"/>
      <use xlink:href="#DejaVuSans-20" transform="translate(59.179688 0.78125)"/>
      <use xlink:href="#DejaVuSans-3d" transform="translate(90.966797 0.78125)"/>
      <use xlink:href="#DejaVuSans-20" transform="translate(174.755859 0.78125)"/>
      <use xlink:href="#DejaVuSans-30" transform="translate(206.542969 0.78125)"/>
      <use xlink:href="#DejaVuSans-2e" transform="translate(270.166016 0.78125)"/>
      <use xlink:href="#DejaVuSans-32" transform="translate(296.453125 0.78125)"/>
      <use xlink:href="#DejaVuSans-30" transform="translate(360.076172 0.78125)"/>
     </g>
    </g>
    <g id="line2d_50">
     <path d="M 357.845312 315.668358
L 367.845312 315.668358
L 377.845312 315.668358
" style="fill: none; stroke: #feba2c; stroke-opacity: 0.9; stroke-width: 2; stroke-linecap: square"/>
    </g>
    <g id="text_5">
     <!-- $\gamma$ = 0.40 -->
     <g transform="translate(385.845312 319.168358) scale(0.1 -0.1)">
      <use xlink:href="#DejaVuSans-Oblique-3b3" transform="translate(0 0.78125)"/>
      <use xlink:href="#DejaVuSans-20" transform="translate(59.179688 0.78125)"/>
      <use xlink:href="#DejaVuSans-3d" transform="translate(90.966797 0.78125)"/>
      <use xlink:href="#DejaVuSans-20" transform="translate(174.755859 0.78125)"/>
      <use xlink:href="#DejaVuSans-30" transform="translate(206.542969 0.78125)"/>
      <use xlink:href="#DejaVuSans-2e" transform="translate(270.166016 0.78125)"/>
      <use xlink:href="#DejaVuSans-34" transform="translate(301.953125 0.78125)"/>
      <use xlink:href="#DejaVuSans-30" transform="translate(365.576172 0.78125)"/>
     </g>
    </g>
   </g>
  </g>
  <g id="text_6">
   <!-- Pure Shear -->
   <g transform="translate(214.544062 309.6) scale(0.12 -0.12)">
    <defs>
     <path id="DejaVuSans-Bold-50" d="M 588 4666
L 2584 4666
Q 3475 4666 3951 4270
Q 4428 3875 4428 3144
Q 4428 2409 3951 2014
Q 3475 1619 2584 1619
L 1791 1619
L 1791 0
L 588 0
L 588 4666
z
M 1791 3794
L 1791 2491
L 2456 2491
Q 2806 2491 2997 2661
Q 3188 2831 3188 3144
Q 3188 3456 2997 3625
Q 2806 3794 2456 3794
L 1791 3794
z
" transform="scale(0.015625)"/>
     <path id="DejaVuSans-Bold-75" d="M 500 1363
L 500 3500
L 1625 3500
L 1625 3150
Q 1625 2866 1622 2436
Q 1619 2006 1619 1863
Q 1619 1441 1641 1255
Q 1663 1069 1716 984
Q 1784 875 1895 815
Q 2006 756 2150 756
Q 2500 756 2700 1025
Q 2900 1294 2900 1772
L 2900 3500
L 4019 3500
L 4019 0
L 2900 0
L 2900 506
Q 2647 200 2364 54
Q 2081 -91 1741 -91
Q 1134 -91 817 281
Q 500 653 500 1363
z
" transform="scale(0.015625)"/>
     <path id="DejaVuSans-Bold-72" d="M 3138 2547
Q 2991 2616 2845 2648
Q 2700 2681 2553 2681
Q 2122 2681 1889 2404
Q 1656 2128 1656 1613
L 1656 0
L 538 0
L 538 3500
L 1656 3500
L 1656 2925
Q 1872 3269 2151 3426
Q 2431 3584 2822 3584
Q 2878 3584 2943 3579
Q 3009 3575 3134 3559
L 3138 2547
z
" transform="scale(0.015625)"/>
     <path id="DejaVuSans-Bold-65" d="M 4031 1759
L 4031 1441
L 1416 1441
Q 1456 1047 1700 850
Q 1944 653 2381 653
Q 2734 653 3104 758
Q 3475 863 3866 1075
L 3866 213
Q 3469 63 3072 -14
Q 2675 -91 2278 -91
Q 1328 -91 801 392
Q 275 875 275 1747
Q 275 2603 792 3093
Q 1309 3584 2216 3584
Q 3041 3584 3536 3087
Q 4031 2591 4031 1759
z
M 2881 2131
Q 2881 2450 2695 2645
Q 2509 2841 2209 2841
Q 1884 2841 1681 2658
Q 1478 2475 1428 2131
L 2881 2131
z
" transform="scale(0.015625)"/>
     <path id="DejaVuSans-Bold-20" transform="scale(0.015625)"/>
     <path id="DejaVuSans-Bold-53" d="M 3834 4519
L 3834 3531
Q 3450 3703 3084 3790
Q 2719 3878 2394 3878
Q 1963 3878 1756 3759
Q 1550 3641 1550 3391
Q 1550 3203 1689 3098
Q 1828 2994 2194 2919
L 2706 2816
Q 3484 2659 3812 2340
Q 4141 2022 4141 1434
Q 4141 663 3683 286
Q 3225 -91 2284 -91
Q 1841 -91 1394 -6
Q 947 78 500 244
L 500 1259
Q 947 1022 1364 901
Q 1781 781 2169 781
Q 2563 781 2772 912
Q 2981 1044 2981 1288
Q 2981 1506 2839 1625
Q 2697 1744 2272 1838
L 1806 1941
Q 1106 2091 782 2419
Q 459 2747 459 3303
Q 459 4000 909 4375
Q 1359 4750 2203 4750
Q 2588 4750 2994 4692
Q 3400 4634 3834 4519
z
" transform="scale(0.015625)"/>
     <path id="DejaVuSans-Bold-68" d="M 4056 2131
L 4056 0
L 2931 0
L 2931 347
L 2931 1625
Q 2931 2084 2911 2256
Q 2891 2428 2841 2509
Q 2775 2619 2662 2680
Q 2550 2741 2406 2741
Q 2056 2741 1856 2470
Q 1656 2200 1656 1722
L 1656 0
L 538 0
L 538 4863
L 1656 4863
L 1656 2988
Q 1909 3294 2193 3439
Q 2478 3584 2822 3584
Q 3428 3584 3742 3212
Q 4056 2841 4056 2131
z
" transform="scale(0.015625)"/>
     <path id="DejaVuSans-Bold-61" d="M 2106 1575
Q 1756 1575 1579 1456
Q 1403 1338 1403 1106
Q 1403 894 1545 773
Q 1688 653 1941 653
Q 2256 653 2472 879
Q 2688 1106 2688 1447
L 2688 1575
L 2106 1575
z
M 3816 1997
L 3816 0
L 2688 0
L 2688 519
Q 2463 200 2181 54
Q 1900 -91 1497 -91
Q 953 -91 614 226
Q 275 544 275 1050
Q 275 1666 698 1953
Q 1122 2241 2028 2241
L 2688 2241
L 2688 2328
Q 2688 2594 2478 2717
Q 2269 2841 1825 2841
Q 1466 2841 1156 2769
Q 847 2697 581 2553
L 581 3406
Q 941 3494 1303 3539
Q 1666 3584 2028 3584
Q 2975 3584 3395 3211
Q 3816 2838 3816 1997
z
" transform="scale(0.015625)"/>
    </defs>
    <use xlink:href="#DejaVuSans-Bold-50"/>
    <use xlink:href="#DejaVuSans-Bold-75" x="73.291016"/>
    <use xlink:href="#DejaVuSans-Bold-72" x="144.482422"/>
    <use xlink:href="#DejaVuSans-Bold-65" x="193.798828"/>
    <use xlink:href="#DejaVuSans-Bold-20" x="261.621094"/>
    <use xlink:href="#DejaVuSans-Bold-53" x="296.435547"/>
    <use xlink:href="#DejaVuSans-Bold-68" x="368.457031"/>
    <use xlink:href="#DejaVuSans-Bold-65" x="439.648438"/>
    <use xlink:href="#DejaVuSans-Bold-61" x="507.470703"/>
    <use xlink:href="#DejaVuSans-Bold-72" x="574.951172"/>
   </g>
  </g>
 </g>
 <defs>
  <clipPath id="p44f0dfc425">
   <rect x="15" y="15" width="474" height="312.576"/>
  </clipPath>
 </defs>
</svg>
